<?xml version="1.0" encoding="UTF-8"?>
<!DOCTYPE svg PUBLIC "-//W3C//DTD SVG 1.1//EN" "http://www.w3.org/Graphics/SVG/1.1/DTD/svg11.dtd">
<svg xmlns="http://www.w3.org/2000/svg" version="1.1" width="512px" height="512px" style="shape-rendering:geometricPrecision; text-rendering:geometricPrecision; image-rendering:optimizeQuality; fill-rule:evenodd; clip-rule:evenodd" xmlns:xlink="http://www.w3.org/1999/xlink">
<g><path style="opacity:0.963" fill="#000000" d="M 232.5,-0.5 C 247.833,-0.5 263.167,-0.5 278.5,-0.5C 379.371,12.3469 450.871,65.0136 493,157.5C 502.497,181.819 508.663,206.819 511.5,232.5C 511.5,247.833 511.5,263.167 511.5,278.5C 500.61,367.147 456.943,434.313 380.5,480C 348.466,497.292 314.466,507.792 278.5,511.5C 263.167,511.5 247.833,511.5 232.5,511.5C 143.567,501.026 76.4004,457.36 31,380.5C 13.7076,348.465 3.20759,314.465 -0.5,278.5C -0.5,263.167 -0.5,247.833 -0.5,232.5C 11.9006,134.848 62.234,64.3481 150.5,21C 176.892,9.73692 204.225,2.57026 232.5,-0.5 Z M 254.5,29.5 C 327.48,31.4094 386.98,60.4094 433,116.5C 482.483,183.871 493.483,257.204 466,336.5C 453.267,368.222 434.6,395.889 410,419.5C 394.494,371.828 363.994,337.495 318.5,316.5C 357.585,287.111 373.085,248.111 365,199.5C 351.297,148.796 318.463,119.63 266.5,112C 213.031,109.637 174.865,132.471 152,180.5C 136.094,224.293 143.094,263.96 173,299.5C 179.377,305.382 185.877,311.049 192.5,316.5C 147.006,337.495 116.506,371.828 101,419.5C 39.6469,358.08 18.3136,284.747 37,199.5C 61.8333,116 116,61.8333 199.5,37C 217.751,32.762 236.084,30.262 254.5,29.5 Z M 246.5,142.5 C 284.166,140.739 311.666,156.406 329,189.5C 343.55,227.421 335.717,259.921 305.5,287C 272.167,310.333 238.833,310.333 205.5,287C 176.813,261.752 168.313,230.919 180,194.5C 192.681,164.981 214.848,147.647 246.5,142.5 Z M 241.5,335.5 C 297.631,332.477 340.131,354.81 369,402.5C 375.757,414.769 380.09,427.769 382,441.5C 323.48,480.17 260.313,490.336 192.5,472C 170.265,465.547 149.598,455.881 130.5,443C 129.426,442.261 128.759,441.261 128.5,440C 143.664,380.664 181.331,345.83 241.5,335.5 Z"/></g>
</svg>
